<?xml version="1.0" encoding="UTF-8" standalone="no"?>
<!DOCTYPE svg PUBLIC "-//W3C//DTD SVG 1.1//EN"
 "http://www.w3.org/Graphics/SVG/1.1/DTD/svg11.dtd">
<!-- Generated by graphviz version 15.1.1 (20260805.0921)
 -->
<!-- Title: G Pages: 1 -->
<svg width="1584pt" height="493pt"
 viewBox="0.00 0.00 1584.00 493.00" xmlns="http://www.w3.org/2000/svg" xmlns:xlink="http://www.w3.org/1999/xlink">
<g id="graph0" class="graph" transform="scale(1 1) rotate(0) translate(21.6 471.6)">
<title>G</title>
<g id="clust1" class="cluster">
<title>cluster_trusted</title>
<path fill="none" stroke="#86efac" d="M30.64,-297C30.64,-297 162.86,-297 162.86,-297 168.86,-297 174.86,-303 174.86,-309 174.86,-309 174.86,-430 174.86,-430 174.86,-436 168.86,-442 162.86,-442 162.86,-442 30.64,-442 30.64,-442 24.64,-442 18.64,-436 18.64,-430 18.64,-430 18.64,-309 18.64,-309 18.64,-303 24.64,-297 30.64,-297"/>
<text xml:space="preserve" text-anchor="middle" x="96.75" y="-429.45" font-family="Arial" font-size="9.00">TRUSTED — may instruct</text>
</g>
<g id="clust2" class="cluster">
<title>cluster_untrusted</title>
<path fill="none" stroke="#fca5a5" d="M12,-8C12,-8 182.5,-8 182.5,-8 188.5,-8 194.5,-14 194.5,-20 194.5,-20 194.5,-219 194.5,-219 194.5,-225 188.5,-231 182.5,-231 182.5,-231 12,-231 12,-231 6,-231 0,-225 0,-219 0,-219 0,-20 0,-20 0,-14 6,-8 12,-8"/>
<text xml:space="preserve" text-anchor="middle" x="97.25" y="-218.45" font-family="Arial" font-size="9.00">UNTRUSTED — data only, never instruction</text>
</g>
<!-- sys -->
<g id="node1" class="node">
<title>sys</title>
<path fill="#dcfce7" stroke="#374151" d="M148.86,-349.23C148.86,-349.23 44.64,-349.23 44.64,-349.23 38.64,-349.23 32.64,-343.23 32.64,-337.23 32.64,-337.23 32.64,-316.77 32.64,-316.77 32.64,-310.77 38.64,-304.77 44.64,-304.77 44.64,-304.77 148.86,-304.77 148.86,-304.77 154.86,-304.77 160.86,-310.77 160.86,-316.77 160.86,-316.77 160.86,-337.23 160.86,-337.23 160.86,-343.23 154.86,-349.23 148.86,-349.23"/>
<text xml:space="preserve" text-anchor="middle" x="96.75" y="-334.2" font-family="Arial" font-size="9.00">trust: system</text>
<text xml:space="preserve" text-anchor="middle" x="96.75" y="-323.7" font-family="Arial" font-size="9.00">Prompt/tool/policy versions</text>
<text xml:space="preserve" text-anchor="middle" x="96.75" y="-313.2" font-family="Arial" font-size="9.00">Reviewer policy</text>
</g>
<!-- assemble -->
<g id="node7" class="node">
<title>assemble</title>
<path fill="#dbeafe" stroke="#374151" d="M451.35,-308.48C451.35,-308.48 329.88,-308.48 329.88,-308.48 323.88,-308.48 317.88,-302.48 317.88,-296.48 317.88,-296.48 317.88,-265.52 317.88,-265.52 317.88,-259.52 323.88,-253.52 329.88,-253.52 329.88,-253.52 451.35,-253.52 451.35,-253.52 457.35,-253.52 463.35,-259.52 463.35,-265.52 463.35,-265.52 463.35,-296.48 463.35,-296.48 463.35,-302.48 457.35,-308.48 451.35,-308.48"/>
<text xml:space="preserve" text-anchor="middle" x="390.61" y="-293.45" font-family="Arial" font-size="9.00">CONTEXT ASSEMBLY</text>
<text xml:space="preserve" text-anchor="middle" x="390.61" y="-282.95" font-family="Arial" font-size="9.00">Per&#45;item trust tier</text>
<text xml:space="preserve" text-anchor="middle" x="390.61" y="-272.45" font-family="Arial" font-size="9.00">Provenance + selection reason</text>
<text xml:space="preserve" text-anchor="middle" x="390.61" y="-261.95" font-family="Arial" font-size="9.00">Delimit + label untrusted</text>
</g>
<!-- sys&#45;&gt;assemble -->
<g id="edge1" class="edge">
<title>sys&#45;&gt;assemble</title>
<path fill="none" stroke="#6b7280" d="M161.07,-311.67C176.53,-308.26 193.06,-304.87 208.5,-302.25 241.44,-296.65 278.01,-292.06 309.61,-288.59"/>
<polygon fill="#6b7280" stroke="#6b7280" points="309.81,-290.86 316.03,-287.9 309.32,-286.33 309.81,-290.86"/>
<text xml:space="preserve" text-anchor="middle" x="251.25" y="-304.88" font-family="Arial" font-size="7.50">instruction position</text>
</g>
<!-- usr -->
<g id="node2" class="node">
<title>usr</title>
<path fill="#dcfce7" stroke="#374151" d="M154.86,-415.23C154.86,-415.23 38.64,-415.23 38.64,-415.23 32.64,-415.23 26.64,-409.23 26.64,-403.23 26.64,-403.23 26.64,-382.77 26.64,-382.77 26.64,-376.77 32.64,-370.77 38.64,-370.77 38.64,-370.77 154.86,-370.77 154.86,-370.77 160.86,-370.77 166.86,-376.77 166.86,-382.77 166.86,-382.77 166.86,-403.23 166.86,-403.23 166.86,-409.23 160.86,-415.23 154.86,-415.23"/>
<text xml:space="preserve" text-anchor="middle" x="96.75" y="-400.2" font-family="Arial" font-size="9.00">trust: user</text>
<text xml:space="preserve" text-anchor="middle" x="96.75" y="-389.7" font-family="Arial" font-size="9.00">Outcome • acceptance criteria</text>
<text xml:space="preserve" text-anchor="middle" x="96.75" y="-379.2" font-family="Arial" font-size="9.00">Scope • declared exceptions</text>
</g>
<!-- usr&#45;&gt;assemble -->
<g id="edge2" class="edge">
<title>usr&#45;&gt;assemble</title>
<path fill="none" stroke="#6b7280" d="M167.23,-374.22C176.77,-370.26 186.15,-365.55 194.5,-360 202.3,-354.82 200.72,-349.46 208.5,-344.25 213.19,-341.11 263.65,-323.58 310.12,-307.76"/>
<polygon fill="#6b7280" stroke="#6b7280" points="310.68,-309.97 316.1,-305.73 309.22,-305.67 310.68,-309.97"/>
<text xml:space="preserve" text-anchor="middle" x="251.25" y="-346.88" font-family="Arial" font-size="7.50">instruction position</text>
</g>
<!-- verdict -->
<g id="node10" class="node">
<title>verdict</title>
<path fill="#fef3c7" stroke="#374151" d="M988.91,-337.48C988.91,-337.48 849.44,-337.48 849.44,-337.48 843.44,-337.48 837.44,-331.48 837.44,-325.48 837.44,-325.48 837.44,-294.52 837.44,-294.52 837.44,-288.52 843.44,-282.52 849.44,-282.52 849.44,-282.52 988.91,-282.52 988.91,-282.52 994.91,-282.52 1000.91,-288.52 1000.91,-294.52 1000.91,-294.52 1000.91,-325.48 1000.91,-325.48 1000.91,-331.48 994.91,-337.48 988.91,-337.48"/>
<text xml:space="preserve" text-anchor="middle" x="919.18" y="-322.45" font-family="Arial" font-size="9.00">STRUCTURED VERDICT</text>
<text xml:space="preserve" text-anchor="middle" x="919.18" y="-311.95" font-family="Arial" font-size="9.00">Enumerated criterion_id from PLAN</text>
<text xml:space="preserve" text-anchor="middle" x="919.18" y="-301.45" font-family="Arial" font-size="9.00">Status + verification_strength</text>
<text xml:space="preserve" text-anchor="middle" x="919.18" y="-290.95" font-family="Arial" font-size="9.00">Never parsed from prose</text>
</g>
<!-- usr&#45;&gt;verdict -->
<g id="edge10" class="edge">
<title>usr&#45;&gt;verdict</title>
<path fill="none" stroke="#059669" d="M167.04,-389.49C282.8,-383.18 522.72,-368.18 724.44,-343 758.92,-338.7 796.62,-332.6 829.53,-326.81"/>
<polygon fill="#059669" stroke="#059669" points="829.85,-329.06 835.86,-325.69 829.06,-324.58 829.85,-329.06"/>
<text xml:space="preserve" text-anchor="middle" x="518.72" y="-369.47" font-family="Arial" font-size="7.50">criterion_id source</text>
</g>
<!-- repo -->
<g id="node3" class="node">
<title>repo</title>
<path fill="#fee2e2" stroke="#374151" d="M140.61,-137.48C140.61,-137.48 52.89,-137.48 52.89,-137.48 46.89,-137.48 40.89,-131.48 40.89,-125.48 40.89,-125.48 40.89,-94.52 40.89,-94.52 40.89,-88.52 46.89,-82.52 52.89,-82.52 52.89,-82.52 140.61,-82.52 140.61,-82.52 146.61,-82.52 152.61,-88.52 152.61,-94.52 152.61,-94.52 152.61,-125.48 152.61,-125.48 152.61,-131.48 146.61,-137.48 140.61,-137.48"/>
<text xml:space="preserve" text-anchor="middle" x="96.75" y="-122.45" font-family="Arial" font-size="9.00">trust: repo</text>
<text xml:space="preserve" text-anchor="middle" x="96.75" y="-111.95" font-family="Arial" font-size="9.00">Source • docs • tests</text>
<text xml:space="preserve" text-anchor="middle" x="96.75" y="-101.45" font-family="Arial" font-size="9.00">Test output • CI logs</text>
<text xml:space="preserve" text-anchor="middle" x="96.75" y="-90.95" font-family="Arial" font-size="9.00">Dependency metadata</text>
</g>
<!-- repo&#45;&gt;assemble -->
<g id="edge3" class="edge">
<title>repo&#45;&gt;assemble</title>
<path fill="none" stroke="#6b7280" stroke-dasharray="5,2" d="M153.04,-130.83C166.75,-136.39 181.28,-142.63 194.5,-149 240.27,-171.04 256.22,-171.29 294,-205.25 306.5,-216.48 303.7,-224.55 316,-236 320.73,-240.4 325.95,-244.59 331.37,-248.53"/>
<polygon fill="#6b7280" stroke="#6b7280" points="329.93,-250.3 336.57,-252.15 332.54,-246.57 329.93,-250.3"/>
<text xml:space="preserve" text-anchor="middle" x="251.25" y="-207.88" font-family="Arial" font-size="7.50">data position only</text>
</g>
<!-- agentcfg -->
<g id="node4" class="node">
<title>agentcfg</title>
<path fill="#fee2e2" stroke="#374151" d="M148.49,-60.23C148.49,-60.23 45.02,-60.23 45.02,-60.23 39.02,-60.23 33.02,-54.23 33.02,-48.23 33.02,-48.23 33.02,-27.77 33.02,-27.77 33.02,-21.77 39.02,-15.77 45.02,-15.77 45.02,-15.77 148.49,-15.77 148.49,-15.77 154.49,-15.77 160.49,-21.77 160.49,-27.77 160.49,-27.77 160.49,-48.23 160.49,-48.23 160.49,-54.23 154.49,-60.23 148.49,-60.23"/>
<text xml:space="preserve" text-anchor="middle" x="96.75" y="-45.2" font-family="Arial" font-size="9.00">repo agent configuration</text>
<text xml:space="preserve" text-anchor="middle" x="96.75" y="-34.7" font-family="Arial" font-size="9.00">Hooks • tool servers • skills</text>
<text xml:space="preserve" text-anchor="middle" x="96.75" y="-24.2" font-family="Arial" font-size="9.00">Memory + instruction files</text>
</g>
<!-- neutralise -->
<g id="node6" class="node">
<title>neutralise</title>
<polygon fill="#fecaca" stroke="#374151" points="465.22,-113.73 320,-113.73 316,-109.73 316,-48.27 461.22,-48.27 465.22,-52.27 465.22,-113.73"/>
<polyline fill="none" stroke="#374151" points="461.22,-109.73 316,-109.73"/>
<polyline fill="none" stroke="#374151" points="461.22,-109.73 461.22,-48.27"/>
<polyline fill="none" stroke="#374151" points="461.22,-109.73 465.22,-113.73"/>
<text xml:space="preserve" text-anchor="middle" x="390.61" y="-98.7" font-family="Arial" font-size="9.00">NEUTRALISED AT HANDOVER</text>
<text xml:space="preserve" text-anchor="middle" x="390.61" y="-88.2" font-family="Arial" font-size="9.00">Suppressed at invocation</text>
<text xml:space="preserve" text-anchor="middle" x="390.61" y="-77.7" font-family="Arial" font-size="9.00">Withheld from the worktree</text>
<text xml:space="preserve" text-anchor="middle" x="390.61" y="-67.2" font-family="Arial" font-size="9.00">Credential&#45;only provider home</text>
<text xml:space="preserve" text-anchor="middle" x="390.61" y="-56.7" font-family="Arial" font-size="9.00">Asserted: no instruction sources</text>
</g>
<!-- agentcfg&#45;&gt;neutralise -->
<g id="edge5" class="edge">
<title>agentcfg&#45;&gt;neutralise</title>
<path fill="none" stroke="#6b7280" stroke-dasharray="5,2" d="M160.72,-47.28C203.82,-53.63 261.37,-62.11 307.98,-68.97"/>
<polygon fill="#6b7280" stroke="#6b7280" points="307.4,-71.19 314.16,-69.88 308.07,-66.69 307.4,-71.19"/>
<text xml:space="preserve" text-anchor="middle" x="251.25" y="-68.49" font-family="Arial" font-size="7.50">never reaches the agent</text>
</g>
<!-- ext -->
<g id="node5" class="node">
<title>ext</title>
<path fill="#fee2e2" stroke="#374151" d="M152.24,-204.23C152.24,-204.23 41.26,-204.23 41.26,-204.23 35.26,-204.23 29.27,-198.23 29.27,-192.23 29.27,-192.23 29.27,-171.77 29.27,-171.77 29.27,-165.77 35.27,-159.77 41.27,-159.77 41.27,-159.77 152.24,-159.77 152.24,-159.77 158.24,-159.77 164.24,-165.77 164.24,-171.77 164.24,-171.77 164.24,-192.23 164.24,-192.23 164.24,-198.23 158.24,-204.23 152.24,-204.23"/>
<text xml:space="preserve" text-anchor="middle" x="96.75" y="-189.2" font-family="Arial" font-size="9.00">trust: external</text>
<text xml:space="preserve" text-anchor="middle" x="96.75" y="-178.7" font-family="Arial" font-size="9.00">Issue bodies • PR comments</text>
<text xml:space="preserve" text-anchor="middle" x="96.75" y="-168.2" font-family="Arial" font-size="9.00">Files a draft starts from</text>
</g>
<!-- ext&#45;&gt;assemble -->
<g id="edge4" class="edge">
<title>ext&#45;&gt;assemble</title>
<path fill="none" stroke="#6b7280" stroke-dasharray="5,2" d="M164.71,-204.71C207.99,-219.39 264.54,-238.57 310.1,-254.03"/>
<polygon fill="#6b7280" stroke="#6b7280" points="309.28,-256.16 316.17,-256.09 310.75,-251.85 309.28,-256.16"/>
<text xml:space="preserve" text-anchor="middle" x="251.25" y="-248.78" font-family="Arial" font-size="7.50">data position only</text>
</g>
<!-- model -->
<g id="node9" class="node">
<title>model</title>
<path fill="#ddd6fe" stroke="#374151" d="M706.07,-265.73C706.07,-265.73 590.6,-265.73 590.6,-265.73 584.6,-265.73 578.6,-259.73 578.6,-253.73 578.6,-253.73 578.6,-212.27 578.6,-212.27 578.6,-206.27 584.6,-200.27 590.6,-200.27 590.6,-200.27 706.07,-200.27 706.07,-200.27 712.07,-200.27 718.07,-206.27 718.07,-212.27 718.07,-212.27 718.07,-253.73 718.07,-253.73 718.07,-259.73 712.07,-265.73 706.07,-265.73"/>
<text xml:space="preserve" text-anchor="middle" x="648.33" y="-250.7" font-family="Arial" font-size="9.00">BOUNDED MODEL RUN</text>
<text xml:space="preserve" text-anchor="middle" x="648.33" y="-240.2" font-family="Arial" font-size="9.00">Anthropic or OpenAI transport</text>
<text xml:space="preserve" text-anchor="middle" x="648.33" y="-229.7" font-family="Arial" font-size="9.00">Plan • execute • review</text>
<text xml:space="preserve" text-anchor="middle" x="648.33" y="-219.2" font-family="Arial" font-size="9.00">Allow&#45;listed tools</text>
<text xml:space="preserve" text-anchor="middle" x="648.33" y="-208.7" font-family="Arial" font-size="9.00">Egress logged</text>
</g>
<!-- neutralise&#45;&gt;model -->
<g id="edge15" class="edge">
<title>neutralise&#45;&gt;model</title>
<path fill="none" stroke="#6b7280" stroke-dasharray="5,2" d="M465.43,-113.81C492.69,-126.85 523.45,-142.69 550.22,-159.25 567.55,-169.97 585.57,-183.05 601.31,-195.2"/>
<polygon fill="#6b7280" stroke="#6b7280" points="599.74,-196.85 606.26,-199.05 602.53,-193.26 599.74,-196.85"/>
<text xml:space="preserve" text-anchor="middle" x="518.72" y="-161.88" font-family="Arial" font-size="7.50">nothing loaded</text>
</g>
<!-- det -->
<g id="node8" class="node">
<title>det</title>
<polygon fill="#e0e7ff" stroke="#374151" points="724.44,-332.23 576.22,-332.23 572.22,-328.23 572.22,-287.77 720.44,-287.77 724.44,-291.77 724.44,-332.23"/>
<polyline fill="none" stroke="#374151" points="720.44,-328.23 572.22,-328.23"/>
<polyline fill="none" stroke="#374151" points="720.44,-328.23 720.44,-287.77"/>
<polyline fill="none" stroke="#374151" points="720.44,-328.23 724.44,-332.23"/>
<text xml:space="preserve" text-anchor="middle" x="648.33" y="-317.2" font-family="Arial" font-size="9.00">DETERMINISTIC CHECKS</text>
<text xml:space="preserve" text-anchor="middle" x="648.33" y="-306.7" font-family="Arial" font-size="9.00">Scope • secrets • lint/type/test</text>
<text xml:space="preserve" text-anchor="middle" x="648.33" y="-296.2" font-family="Arial" font-size="9.00">Migration • dependency • licence</text>
</g>
<!-- assemble&#45;&gt;det -->
<g id="edge6" class="edge">
<title>assemble&#45;&gt;det</title>
<path fill="none" stroke="#6b7280" d="M463.52,-289.16C494.84,-292.71 531.74,-296.89 564.22,-300.58"/>
<polygon fill="#6b7280" stroke="#6b7280" points="563.73,-302.81 570.44,-301.28 564.24,-298.29 563.73,-302.81"/>
<text xml:space="preserve" text-anchor="middle" x="518.72" y="-301.58" font-family="Arial" font-size="7.50">paths + diff</text>
</g>
<!-- assemble&#45;&gt;model -->
<g id="edge7" class="edge">
<title>assemble&#45;&gt;model</title>
<path fill="none" stroke="#6b7280" d="M463.52,-267.5C496.9,-261.24 536.6,-253.78 570.56,-247.41"/>
<polygon fill="#6b7280" stroke="#6b7280" points="570.7,-249.7 576.67,-246.26 569.86,-245.23 570.7,-249.7"/>
<text xml:space="preserve" text-anchor="middle" x="518.72" y="-265.34" font-family="Arial" font-size="7.50">bounded context</text>
</g>
<!-- det&#45;&gt;verdict -->
<g id="edge8" class="edge">
<title>det&#45;&gt;verdict</title>
<path fill="none" stroke="#059669" stroke-width="1.8" d="M724.93,-310C757.01,-310 794.66,-310 828.16,-310"/>
<polygon fill="#059669" stroke="#059669" stroke-width="1.8" points="827.81,-312.28 834.31,-310 827.81,-307.73 827.81,-312.28"/>
<text xml:space="preserve" text-anchor="middle" x="780.94" y="-312.62" font-family="Arial" font-size="7.50">authoritative</text>
</g>
<!-- model&#45;&gt;verdict -->
<g id="edge9" class="edge">
<title>model&#45;&gt;verdict</title>
<path fill="none" stroke="#6b7280" stroke-dasharray="5,2" d="M718.56,-252.83C752.41,-262.52 793.52,-274.3 829.62,-284.64"/>
<polygon fill="#6b7280" stroke="#6b7280" points="828.92,-286.8 835.79,-286.4 830.17,-282.43 828.92,-286.8"/>
<text xml:space="preserve" text-anchor="middle" x="780.94" y="-281.02" font-family="Arial" font-size="7.50">claims (subordinate)</text>
</g>
<!-- bundle -->
<g id="node13" class="node">
<title>bundle</title>
<polygon fill="#e5e7eb" stroke="#374151" points="154.11,-283.23 43.39,-283.23 39.39,-279.23 39.39,-238.77 150.11,-238.77 154.11,-242.77 154.11,-283.23"/>
<polyline fill="none" stroke="#374151" points="150.11,-279.23 39.39,-279.23"/>
<polyline fill="none" stroke="#374151" points="150.11,-279.23 150.11,-238.77"/>
<polyline fill="none" stroke="#374151" points="150.11,-279.23 154.11,-283.23"/>
<text xml:space="preserve" text-anchor="middle" x="96.75" y="-268.2" font-family="Arial" font-size="9.00">RUN BUNDLE</text>
<text xml:space="preserve" text-anchor="middle" x="96.75" y="-257.7" font-family="Arial" font-size="9.00">Every item + its trust tier</text>
<text xml:space="preserve" text-anchor="middle" x="96.75" y="-247.2" font-family="Arial" font-size="9.00">Denied actions audited</text>
</g>
<!-- model&#45;&gt;bundle -->
<g id="edge17" class="edge">
<title>model&#45;&gt;bundle</title>
<path fill="none" stroke="#6b7280" d="M578.4,-230.53C511.32,-228.73 406.56,-227.48 316,-233.25 315.03,-233.31 226.16,-244.63 162.14,-252.79"/>
<polygon fill="#6b7280" stroke="#6b7280" points="162.13,-250.5 155.97,-253.58 162.7,-255.01 162.13,-250.5"/>
<text xml:space="preserve" text-anchor="middle" x="390.61" y="-235.88" font-family="Arial" font-size="7.50">trust tiers recorded</text>
</g>
<!-- gate -->
<g id="node11" class="node">
<title>gate</title>
<path fill="#fce7f3" stroke="#374151" d="M1529.1,-338.48C1529.1,-338.48 1417.38,-338.48 1417.38,-338.48 1411.38,-338.48 1405.38,-332.48 1405.38,-326.48 1405.38,-326.48 1405.38,-295.52 1405.38,-295.52 1405.38,-289.52 1411.38,-283.52 1417.38,-283.52 1417.38,-283.52 1529.1,-283.52 1529.1,-283.52 1535.1,-283.52 1541.1,-289.52 1541.1,-295.52 1541.1,-295.52 1541.1,-326.48 1541.1,-326.48 1541.1,-332.48 1535.1,-338.48 1529.1,-338.48"/>
<text xml:space="preserve" text-anchor="middle" x="1473.24" y="-323.45" font-family="Arial" font-size="9.00">MERGE GATE</text>
<text xml:space="preserve" text-anchor="middle" x="1473.24" y="-312.95" font-family="Arial" font-size="9.00">Blocking findings</text>
<text xml:space="preserve" text-anchor="middle" x="1473.24" y="-302.45" font-family="Arial" font-size="9.00">A person merges, or the loop</text>
<text xml:space="preserve" text-anchor="middle" x="1473.24" y="-291.95" font-family="Arial" font-size="9.00">where merge: loop</text>
</g>
<!-- verdict&#45;&gt;gate -->
<g id="edge11" class="edge">
<title>verdict&#45;&gt;gate</title>
<path fill="none" stroke="#6b7280" d="M1001.34,-310.15C1107.96,-310.34 1293.74,-310.68 1397.21,-310.86"/>
<polygon fill="#6b7280" stroke="#6b7280" points="1397.11,-313.14 1403.62,-310.88 1397.12,-308.59 1397.11,-313.14"/>
<text xml:space="preserve" text-anchor="middle" x="1238.77" y="-313.34" font-family="Arial" font-size="7.50">blocking • escalates • advisory</text>
</g>
<!-- route -->
<g id="node12" class="node">
<title>route</title>
<path fill="#fef3c7" stroke="#374151" d="M1303.63,-285.48C1303.63,-285.48 1173.91,-285.48 1173.91,-285.48 1167.91,-285.48 1161.91,-279.48 1161.91,-273.48 1161.91,-273.48 1161.91,-242.52 1161.91,-242.52 1161.91,-236.52 1167.91,-230.52 1173.91,-230.52 1173.91,-230.52 1303.63,-230.52 1303.63,-230.52 1309.63,-230.52 1315.63,-236.52 1315.63,-242.52 1315.63,-242.52 1315.63,-273.48 1315.63,-273.48 1315.63,-279.48 1309.63,-285.48 1303.63,-285.48"/>
<text xml:space="preserve" text-anchor="middle" x="1238.77" y="-270.45" font-family="Arial" font-size="9.00">ROUTED TO THE EXECUTOR</text>
<text xml:space="preserve" text-anchor="middle" x="1238.77" y="-259.95" font-family="Arial" font-size="9.00">New attempt • re&#45;sealed • verified</text>
<text xml:space="preserve" text-anchor="middle" x="1238.77" y="-249.45" font-family="Arial" font-size="9.00">Bounded rounds, then a person</text>
<text xml:space="preserve" text-anchor="middle" x="1238.77" y="-238.95" font-family="Arial" font-size="9.00">Never context or security</text>
</g>
<!-- verdict&#45;&gt;route -->
<g id="edge12" class="edge">
<title>verdict&#45;&gt;route</title>
<path fill="none" stroke="#b45309" d="M1001.14,-296.74C1047.88,-289.09 1106.58,-279.48 1153.82,-271.75"/>
<polygon fill="#b45309" stroke="#b45309" points="1154.06,-274.01 1160.1,-270.72 1153.32,-269.52 1154.06,-274.01"/>
<text xml:space="preserve" text-anchor="middle" x="1081.41" y="-294.32" font-family="Arial" font-size="7.50">remediable — executor or unclear</text>
</g>
<!-- gate&#45;&gt;bundle -->
<g id="edge16" class="edge">
<title>gate&#45;&gt;bundle</title>
<path fill="none" stroke="#6b7280" d="M1435.95,-283.17C1405.61,-261.62 1360.23,-233.28 1315.63,-220 1266.14,-205.27 805.51,-173.67 572.22,-189 409.52,-199.69 369.14,-209.04 208.5,-237 193.48,-239.61 177.41,-242.84 162.29,-246.08"/>
<polygon fill="#6b7280" stroke="#6b7280" points="161.84,-243.85 155.96,-247.45 162.8,-248.3 161.84,-243.85"/>
</g>
<!-- route&#45;&gt;model -->
<g id="edge13" class="edge">
<title>route&#45;&gt;model</title>
<path fill="none" stroke="#b45309" stroke-dasharray="5,2" d="M1161.56,-258.75C1044.18,-259.63 824.51,-260.05 746.44,-252 739.73,-251.31 732.79,-250.38 725.85,-249.31"/>
<polygon fill="#b45309" stroke="#b45309" points="726.6,-247.12 719.82,-248.33 725.87,-251.62 726.6,-247.12"/>
<text xml:space="preserve" text-anchor="middle" x="919.18" y="-261.73" font-family="Arial" font-size="7.50">findings as data, not instruction</text>
</g>
<!-- route&#45;&gt;gate -->
<g id="edge14" class="edge">
<title>route&#45;&gt;gate</title>
<path fill="none" stroke="#6b7280" stroke-dasharray="1,5" d="M1315.89,-275.35C1342.04,-281.32 1371.28,-287.98 1397.34,-293.92"/>
<polygon fill="#6b7280" stroke="#6b7280" points="1396.64,-296.1 1403.48,-295.32 1397.65,-291.66 1396.64,-296.1"/>
<text xml:space="preserve" text-anchor="middle" x="1360.51" y="-291.87" font-family="Arial" font-size="7.50">rounds spent</text>
</g>
</g>
</svg>
