<?xml version="1.0" encoding="UTF-8" standalone="no"?>
<!DOCTYPE svg PUBLIC "-//W3C//DTD SVG 1.1//EN"
 "http://www.w3.org/Graphics/SVG/1.1/DTD/svg11.dtd">
<!-- Generated by graphviz version 15.1.1 (20260805.0921)
 -->
<!-- Title: FocruxSystemContext Pages: 1 -->
<svg width="1861pt" height="509pt"
 viewBox="0.00 0.00 1861.00 509.00" xmlns="http://www.w3.org/2000/svg" xmlns:xlink="http://www.w3.org/1999/xlink">
<g id="graph0" class="graph" transform="scale(1 1) rotate(0) translate(21.6 486.94)">
<title>FocruxSystemContext</title>
<!-- person -->
<g id="node1" class="node">
<title>person</title>
<ellipse fill="#f7f1e6" stroke="#5c4741" cx="126.93" cy="-72" rx="126.93" ry="34.29"/>
<text xml:space="preserve" text-anchor="middle" x="126.93" y="-81.8" font-family="Arial" font-size="11.00">Person</text>
<text xml:space="preserve" text-anchor="middle" x="126.93" y="-68.3" font-family="Arial" font-size="11.00">Approves contracts, decides stops</text>
<text xml:space="preserve" text-anchor="middle" x="126.93" y="-54.8" font-family="Arial" font-size="11.00">Merges by default (D&#45;041)</text>
</g>
<!-- desktop -->
<g id="node2" class="node">
<title>desktop</title>
<path fill="#fbfaf6" stroke="#5c4741" d="M423.85,-96.25C423.85,-96.25 314.85,-96.25 314.85,-96.25 308.85,-96.25 302.85,-90.25 302.85,-84.25 302.85,-84.25 302.85,-59.75 302.85,-59.75 302.85,-53.75 308.85,-47.75 314.85,-47.75 314.85,-47.75 423.85,-47.75 423.85,-47.75 429.85,-47.75 435.85,-53.75 435.85,-59.75 435.85,-59.75 435.85,-84.25 435.85,-84.25 435.85,-90.25 429.85,-96.25 423.85,-96.25"/>
<text xml:space="preserve" text-anchor="middle" x="369.35" y="-81.8" font-family="Arial" font-size="11.00">Desktop</text>
<text xml:space="preserve" text-anchor="middle" x="369.35" y="-68.3" font-family="Arial" font-size="11.00">Electron host + renderer</text>
<text xml:space="preserve" text-anchor="middle" x="369.35" y="-54.8" font-family="Arial" font-size="11.00">Closed IPC protocol</text>
</g>
<!-- person&#45;&gt;desktop -->
<g id="edge1" class="edge">
<title>person&#45;&gt;desktop</title>
<path fill="none" stroke="#8a7a74" d="M254.12,-72C266.75,-72 279.29,-72 291.19,-72"/>
<polygon fill="#8a7a74" stroke="#8a7a74" points="290.86,-75.5 300.86,-72 290.86,-68.5 290.86,-75.5"/>
</g>
<!-- cli -->
<g id="node3" class="node">
<title>cli</title>
<path fill="#fbfaf6" stroke="#5c4741" d="M677.6,-170.25C677.6,-170.25 571.6,-170.25 571.6,-170.25 565.6,-170.25 559.6,-164.25 559.6,-158.25 559.6,-158.25 559.6,-133.75 559.6,-133.75 559.6,-127.75 565.6,-121.75 571.6,-121.75 571.6,-121.75 677.6,-121.75 677.6,-121.75 683.6,-121.75 689.6,-127.75 689.6,-133.75 689.6,-133.75 689.6,-158.25 689.6,-158.25 689.6,-164.25 683.6,-170.25 677.6,-170.25"/>
<text xml:space="preserve" text-anchor="middle" x="624.6" y="-155.8" font-family="Arial" font-size="11.00">CLI</text>
<text xml:space="preserve" text-anchor="middle" x="624.6" y="-142.3" font-family="Arial" font-size="11.00">`focrux`, one entry point</text>
<text xml:space="preserve" text-anchor="middle" x="624.6" y="-128.8" font-family="Arial" font-size="11.00">two builds</text>
</g>
<!-- person&#45;&gt;cli -->
<g id="edge2" class="edge">
<title>person&#45;&gt;cli</title>
<path fill="none" stroke="#8a7a74" d="M225.27,-94.06C250.46,-99.37 277.6,-104.73 302.85,-109 372.21,-120.73 389.97,-120.92 459.85,-129 488.67,-132.33 520.39,-135.69 548.16,-138.54"/>
<polygon fill="#8a7a74" stroke="#8a7a74" points="547.6,-142 557.9,-139.53 548.3,-135.04 547.6,-142"/>
<text xml:space="preserve" text-anchor="middle" x="369.35" y="-128.2" font-family="Arial" font-size="9.00">or a terminal</text>
</g>
<!-- github -->
<g id="node10" class="node">
<title>github</title>
<path fill="#fbfaf6" stroke="#5c4741" d="M1605.73,-49C1605.73,-49 1517.73,-49 1517.73,-49 1511.73,-49 1505.73,-43 1505.73,-37 1505.73,-37 1505.73,-25 1505.73,-25 1505.73,-19 1511.73,-13 1517.73,-13 1517.73,-13 1605.73,-13 1605.73,-13 1611.73,-13 1617.73,-19 1617.73,-25 1617.73,-25 1617.73,-37 1617.73,-37 1617.73,-43 1611.73,-49 1605.73,-49"/>
<text xml:space="preserve" text-anchor="middle" x="1561.73" y="-34.05" font-family="Arial" font-size="11.00">GitHub</text>
<text xml:space="preserve" text-anchor="middle" x="1561.73" y="-20.55" font-family="Arial" font-size="11.00">Pull request, checks</text>
</g>
<!-- person&#45;&gt;github -->
<g id="edge3" class="edge">
<title>person&#45;&gt;github</title>
<path fill="none" stroke="#8a7a74" d="M191.18,-42.09C238.8,-22.31 306.26,0 368.35,0 368.35,0 368.35,0 1227.23,0 1320.12,0 1426.95,-12.07 1494.15,-21.15"/>
<polygon fill="#8a7a74" stroke="#8a7a74" points="1493.52,-24.6 1503.9,-22.49 1494.47,-17.66 1493.52,-24.6"/>
<text xml:space="preserve" text-anchor="middle" x="760.85" y="-1.95" font-family="Arial" font-size="9.00">merges (D&#45;041 default)</text>
</g>
<!-- desktop&#45;&gt;cli -->
<g id="edge4" class="edge">
<title>desktop&#45;&gt;cli</title>
<path fill="none" stroke="#8a7a74" d="M436.15,-88.74C466.54,-96.73 503.03,-106.67 535.6,-116.5 539.82,-117.77 544.14,-119.11 548.49,-120.49"/>
<polygon fill="#8a7a74" stroke="#8a7a74" points="547.31,-123.78 557.9,-123.5 549.45,-117.12 547.31,-123.78"/>
<text xml:space="preserve" text-anchor="middle" x="497.73" y="-118.45" font-family="Arial" font-size="9.00">bundled, argv only</text>
</g>
<!-- queue -->
<g id="node4" class="node">
<title>queue</title>
<path fill="#fbfaf6" stroke="#5c4741" d="M994.35,-200.25C994.35,-200.25 844.1,-200.25 844.1,-200.25 838.1,-200.25 832.1,-194.25 832.1,-188.25 832.1,-188.25 832.1,-163.75 832.1,-163.75 832.1,-157.75 838.1,-151.75 844.1,-151.75 844.1,-151.75 994.35,-151.75 994.35,-151.75 1000.35,-151.75 1006.35,-157.75 1006.35,-163.75 1006.35,-163.75 1006.35,-188.25 1006.35,-188.25 1006.35,-194.25 1000.35,-200.25 994.35,-200.25"/>
<text xml:space="preserve" text-anchor="middle" x="919.23" y="-185.8" font-family="Arial" font-size="11.00">Queue — `focrux serve`</text>
<text xml:space="preserve" text-anchor="middle" x="919.23" y="-172.3" font-family="Arial" font-size="11.00">Re&#45;levels branches, drafts tickets</text>
<text xml:space="preserve" text-anchor="middle" x="919.23" y="-158.8" font-family="Arial" font-size="11.00">Loopback MCP endpoint</text>
</g>
<!-- cli&#45;&gt;queue -->
<g id="edge7" class="edge">
<title>cli&#45;&gt;queue</title>
<path fill="none" stroke="#8a7a74" d="M689.82,-152.58C728.04,-156.5 777.32,-161.55 820.31,-165.96"/>
<polygon fill="#8a7a74" stroke="#8a7a74" points="819.86,-169.43 830.17,-166.97 820.58,-162.47 819.86,-169.43"/>
<text xml:space="preserve" text-anchor="middle" x="760.85" y="-166.52" font-family="Arial" font-size="9.00">`serve`</text>
</g>
<!-- runner -->
<g id="node5" class="node">
<title>runner</title>
<path fill="#fbfaf6" stroke="#5c4741" d="M1303.6,-200.25C1303.6,-200.25 1148.85,-200.25 1148.85,-200.25 1142.85,-200.25 1136.85,-194.25 1136.85,-188.25 1136.85,-188.25 1136.85,-163.75 1136.85,-163.75 1136.85,-157.75 1142.85,-151.75 1148.85,-151.75 1148.85,-151.75 1303.6,-151.75 1303.6,-151.75 1309.6,-151.75 1315.6,-157.75 1315.6,-163.75 1315.6,-163.75 1315.6,-188.25 1315.6,-188.25 1315.6,-194.25 1309.6,-200.25 1303.6,-200.25"/>
<text xml:space="preserve" text-anchor="middle" x="1226.23" y="-185.8" font-family="Arial" font-size="11.00">Runner</text>
<text xml:space="preserve" text-anchor="middle" x="1226.23" y="-172.3" font-family="Arial" font-size="11.00">Guard, seal, checks</text>
<text xml:space="preserve" text-anchor="middle" x="1226.23" y="-158.8" font-family="Arial" font-size="11.00">Remediation loop, delivery, merge</text>
</g>
<!-- cli&#45;&gt;runner -->
<g id="edge6" class="edge">
<title>cli&#45;&gt;runner</title>
<path fill="none" stroke="#8a7a74" d="M689.69,-139.16C730.42,-135.17 784.29,-130.52 832.1,-128.5 909.48,-125.23 929.35,-120.24 1006.35,-128.5 1045.76,-132.73 1088.49,-141.12 1125.65,-149.69"/>
<polygon fill="#8a7a74" stroke="#8a7a74" points="1124.47,-153.01 1135.01,-151.88 1126.07,-146.19 1124.47,-153.01"/>
<text xml:space="preserve" text-anchor="middle" x="919.23" y="-130.45" font-family="Arial" font-size="9.00">`run`</text>
</g>
<!-- store -->
<g id="node11" class="node">
<title>store</title>
<path fill="#fbfaf6" stroke="#5c4741" d="M1647.35,-459.28C1647.35,-462.63 1608.97,-465.34 1561.73,-465.34 1514.48,-465.34 1476.1,-462.63 1476.1,-459.28 1476.1,-459.28 1476.1,-404.72 1476.1,-404.72 1476.1,-401.37 1514.48,-398.66 1561.73,-398.66 1608.97,-398.66 1647.35,-401.37 1647.35,-404.72 1647.35,-404.72 1647.35,-459.28 1647.35,-459.28"/>
<path fill="none" stroke="#5c4741" d="M1647.35,-459.28C1647.35,-455.94 1608.97,-453.22 1561.73,-453.22 1514.48,-453.22 1476.1,-455.94 1476.1,-459.28"/>
<text xml:space="preserve" text-anchor="middle" x="1561.73" y="-441.8" font-family="Arial" font-size="11.00">Local store</text>
<text xml:space="preserve" text-anchor="middle" x="1561.73" y="-428.3" font-family="Arial" font-size="11.00">`.focrux/`</text>
<text xml:space="preserve" text-anchor="middle" x="1561.73" y="-414.8" font-family="Arial" font-size="11.00">Tickets, contracts, bundles, state</text>
</g>
<!-- cli&#45;&gt;store -->
<g id="edge5" class="edge">
<title>cli&#45;&gt;store</title>
<path fill="none" stroke="#8a7a74" d="M663.81,-177.66C732.76,-233.24 884.42,-348.58 1030.35,-413 1171.33,-475.23 1354.49,-464.26 1464.53,-449.17"/>
<polygon fill="#8a7a74" stroke="#8a7a74" points="666.18,-175.07 656.21,-171.49 661.78,-180.51 666.18,-175.07"/>
<polygon fill="#8a7a74" stroke="#8a7a74" points="1464.7,-452.68 1474.11,-447.82 1463.72,-445.75 1464.7,-452.68"/>
</g>
<!-- queue&#45;&gt;runner -->
<g id="edge8" class="edge">
<title>queue&#45;&gt;runner</title>
<path fill="none" stroke="#8a7a74" d="M1006.81,-176C1043.76,-176 1087.1,-176 1125.39,-176"/>
<polygon fill="#8a7a74" stroke="#8a7a74" points="1125.06,-179.5 1135.06,-176 1125.06,-172.5 1125.06,-179.5"/>
<text xml:space="preserve" text-anchor="middle" x="1071.6" y="-177.95" font-family="Arial" font-size="9.00">spawns `run &#45;&#45;ticket`</text>
</g>
<!-- providers -->
<g id="node9" class="node">
<title>providers</title>
<path fill="#fbfaf6" stroke="#5c4741" d="M1817.35,-222.69C1817.35,-225.1 1793.93,-227.06 1765.1,-227.06 1736.27,-227.06 1712.85,-225.1 1712.85,-222.69 1712.85,-222.69 1712.85,-183.31 1712.85,-183.31 1712.85,-180.9 1736.27,-178.94 1765.1,-178.94 1793.93,-178.94 1817.35,-180.9 1817.35,-183.31 1817.35,-183.31 1817.35,-222.69 1817.35,-222.69"/>
<path fill="none" stroke="#5c4741" d="M1817.35,-222.69C1817.35,-220.27 1793.93,-218.31 1765.1,-218.31 1736.27,-218.31 1712.85,-220.27 1712.85,-222.69"/>
<text xml:space="preserve" text-anchor="middle" x="1765.1" y="-206.05" font-family="Arial" font-size="11.00">Model providers</text>
<text xml:space="preserve" text-anchor="middle" x="1765.1" y="-192.55" font-family="Arial" font-size="11.00">Anthropic, OpenAI</text>
</g>
<!-- queue&#45;&gt;providers -->
<g id="edge11" class="edge">
<title>queue&#45;&gt;providers</title>
<path fill="none" stroke="#8a7a74" d="M968.95,-200.68C1045.51,-237.92 1199.69,-306.82 1339.6,-332 1407.47,-344.21 1626.38,-343.41 1663.85,-325 1701.6,-306.45 1730.1,-266.32 1746.89,-237.14"/>
<polygon fill="#8a7a74" stroke="#8a7a74" points="1749.81,-239.09 1751.6,-228.65 1743.69,-235.69 1749.81,-239.09"/>
<text xml:space="preserve" text-anchor="middle" x="1387.6" y="-341.39" font-family="Arial" font-size="9.00">drafts tracker issues</text>
</g>
<!-- queue&#45;&gt;github -->
<g id="edge10" class="edge">
<title>queue&#45;&gt;github</title>
<path fill="none" stroke="#8a7a74" d="M1004.38,-151.29C1088.64,-127.17 1222.28,-90.61 1339.6,-66 1391.22,-55.17 1450.24,-45.99 1494.31,-39.75"/>
<polygon fill="#8a7a74" stroke="#8a7a74" points="1494.55,-43.25 1503.97,-38.4 1493.58,-36.32 1494.55,-43.25"/>
<text xml:space="preserve" text-anchor="middle" x="1226.23" y="-115.68" font-family="Arial" font-size="9.00">fetch base, read PRs, loop&#45;merge</text>
</g>
<!-- queue&#45;&gt;store -->
<g id="edge9" class="edge">
<title>queue&#45;&gt;store</title>
<path fill="none" stroke="#8a7a74" d="M928.39,-211.46C941.28,-258.65 971.21,-340.68 1030.35,-380 1099.32,-425.86 1331.22,-433.01 1464.43,-433.16"/>
<polygon fill="#8a7a74" stroke="#8a7a74" points="931.83,-210.8 925.92,-202.01 925.06,-212.57 931.83,-210.8"/>
<polygon fill="#8a7a74" stroke="#8a7a74" points="1464.31,-436.66 1474.31,-433.16 1464.3,-429.66 1464.31,-436.66"/>
</g>
<!-- worktree -->
<g id="node6" class="node">
<title>worktree</title>
<path fill="#fbfaf6" stroke="#5c4741" d="M1621.85,-306.28C1621.85,-309.63 1594.9,-312.34 1561.73,-312.34 1528.55,-312.34 1501.6,-309.63 1501.6,-306.28 1501.6,-306.28 1501.6,-251.72 1501.6,-251.72 1501.6,-248.37 1528.55,-245.66 1561.73,-245.66 1594.9,-245.66 1621.85,-248.37 1621.85,-251.72 1621.85,-251.72 1621.85,-306.28 1621.85,-306.28"/>
<path fill="none" stroke="#5c4741" d="M1621.85,-306.28C1621.85,-302.94 1594.9,-300.22 1561.73,-300.22 1528.55,-300.22 1501.6,-302.94 1501.6,-306.28"/>
<text xml:space="preserve" text-anchor="middle" x="1561.73" y="-288.8" font-family="Arial" font-size="11.00">Worktree</text>
<text xml:space="preserve" text-anchor="middle" x="1561.73" y="-275.3" font-family="Arial" font-size="11.00">Git worktree + branch</text>
<text xml:space="preserve" text-anchor="middle" x="1561.73" y="-261.8" font-family="Arial" font-size="11.00">per attempt chain</text>
</g>
<!-- runner&#45;&gt;worktree -->
<g id="edge12" class="edge">
<title>runner&#45;&gt;worktree</title>
<path fill="none" stroke="#8a7a74" d="M1272.42,-200.65C1292.54,-210.85 1316.79,-222.11 1339.6,-230 1388.83,-247.03 1446.32,-259.55 1490.34,-267.68"/>
<polygon fill="#8a7a74" stroke="#8a7a74" points="1489.56,-271.09 1500.02,-269.43 1490.81,-264.2 1489.56,-271.09"/>
<text xml:space="preserve" text-anchor="middle" x="1387.6" y="-258.4" font-family="Arial" font-size="9.00">materializes</text>
</g>
<!-- executor -->
<g id="node7" class="node">
<title>executor</title>
<path fill="#fbfaf6" stroke="#5c4741" d="M1651.85,-221C1651.85,-221 1471.6,-221 1471.6,-221 1465.6,-221 1459.6,-215 1459.6,-209 1459.6,-209 1459.6,-197 1459.6,-197 1459.6,-191 1465.6,-185 1471.6,-185 1471.6,-185 1651.85,-185 1651.85,-185 1657.85,-185 1663.85,-191 1663.85,-197 1663.85,-197 1663.85,-209 1663.85,-209 1663.85,-215 1657.85,-221 1651.85,-221"/>
<text xml:space="preserve" text-anchor="middle" x="1561.73" y="-206.05" font-family="Arial" font-size="11.00">Claude Code or Codex CLI</text>
<text xml:space="preserve" text-anchor="middle" x="1561.73" y="-192.55" font-family="Arial" font-size="11.00">Subscription login owned by the person</text>
</g>
<!-- runner&#45;&gt;executor -->
<g id="edge13" class="edge">
<title>runner&#45;&gt;executor</title>
<path fill="none" stroke="#8a7a74" d="M1300.31,-200.72C1313.26,-204.16 1326.72,-207.15 1339.6,-209 1374.67,-214.04 1413.19,-214.67 1448.11,-213.41"/>
<polygon fill="#8a7a74" stroke="#8a7a74" points="1447.95,-216.92 1457.8,-213 1447.66,-209.93 1447.95,-216.92"/>
<text xml:space="preserve" text-anchor="middle" x="1387.6" y="-215.92" font-family="Arial" font-size="9.00">approved brief</text>
</g>
<!-- reviewer -->
<g id="node8" class="node">
<title>reviewer</title>
<path fill="#f7f1e6" stroke="#5c4741" d="M1629.73,-160.25C1629.73,-160.25 1493.73,-160.25 1493.73,-160.25 1487.73,-160.25 1481.73,-154.25 1481.73,-148.25 1481.73,-148.25 1481.73,-123.75 1481.73,-123.75 1481.73,-117.75 1487.73,-111.75 1493.73,-111.75 1493.73,-111.75 1629.73,-111.75 1629.73,-111.75 1635.73,-111.75 1641.73,-117.75 1641.73,-123.75 1641.73,-123.75 1641.73,-148.25 1641.73,-148.25 1641.73,-154.25 1635.73,-160.25 1629.73,-160.25"/>
<text xml:space="preserve" text-anchor="middle" x="1561.73" y="-145.8" font-family="Arial" font-size="11.00">Independent review</text>
<text xml:space="preserve" text-anchor="middle" x="1561.73" y="-132.3" font-family="Arial" font-size="11.00">Contract + diff + checks only</text>
<text xml:space="preserve" text-anchor="middle" x="1561.73" y="-118.8" font-family="Arial" font-size="11.00">No executor narrative (D&#45;037)</text>
</g>
<!-- runner&#45;&gt;reviewer -->
<g id="edge15" class="edge">
<title>runner&#45;&gt;reviewer</title>
<path fill="none" stroke="#8a7a74" d="M1315.72,-165.39C1363.33,-159.68 1421.95,-152.64 1469.91,-146.89"/>
<polygon fill="#8a7a74" stroke="#8a7a74" points="1470.21,-150.38 1479.73,-145.72 1469.38,-143.43 1470.21,-150.38"/>
<text xml:space="preserve" text-anchor="middle" x="1387.6" y="-163.87" font-family="Arial" font-size="9.00">sealed change set</text>
</g>
<!-- runner&#45;&gt;github -->
<g id="edge18" class="edge">
<title>runner&#45;&gt;github</title>
<path fill="none" stroke="#8a7a74" d="M1265.55,-151.31C1286.85,-138.2 1314.12,-122.38 1339.6,-110.5 1390.32,-86.84 1450.18,-65.71 1494.82,-51.19"/>
<polygon fill="#8a7a74" stroke="#8a7a74" points="1495.66,-54.6 1504.1,-48.2 1493.51,-47.94 1495.66,-54.6"/>
<text xml:space="preserve" text-anchor="middle" x="1387.6" y="-112.45" font-family="Arial" font-size="9.00">push, open pull request</text>
</g>
<!-- runner&#45;&gt;store -->
<g id="edge17" class="edge">
<title>runner&#45;&gt;store</title>
<path fill="none" stroke="#8a7a74" d="M1251.59,-200.36C1273.39,-221.32 1306.87,-251.48 1339.6,-273 1379.22,-299.04 1396.25,-293.06 1435.6,-319.5 1466.18,-340.05 1497,-367.66 1520.4,-390.38"/>
<polygon fill="#8a7a74" stroke="#8a7a74" points="1517.69,-392.63 1527.28,-397.14 1522.6,-387.63 1517.69,-392.63"/>
<text xml:space="preserve" text-anchor="middle" x="1387.6" y="-321.45" font-family="Arial" font-size="9.00">immutable bundles</text>
</g>
<!-- executor&#45;&gt;runner -->
<g id="edge14" class="edge">
<title>executor&#45;&gt;runner</title>
<path fill="none" stroke="#8a7a74" d="M1459.12,-194.77C1417.2,-191.38 1368.75,-187.46 1327.02,-184.08"/>
<polygon fill="#8a7a74" stroke="#8a7a74" points="1327.48,-180.61 1317.23,-183.29 1326.92,-187.58 1327.48,-180.61"/>
<text xml:space="preserve" text-anchor="middle" x="1387.6" y="-194.66" font-family="Arial" font-size="9.00">events, tool calls</text>
</g>
<!-- executor&#45;&gt;providers -->
<g id="edge19" class="edge">
<title>executor&#45;&gt;providers</title>
<path fill="none" stroke="#8a7a74" d="M1664.3,-203C1676.83,-203 1689.35,-203 1701.08,-203"/>
<polygon fill="#8a7a74" stroke="#8a7a74" points="1700.99,-206.5 1710.99,-203 1700.99,-199.5 1700.99,-206.5"/>
</g>
<!-- reviewer&#45;&gt;runner -->
<g id="edge16" class="edge">
<title>reviewer&#45;&gt;runner</title>
<path fill="none" stroke="#8a7a74" d="M1481.33,-128.48C1438.95,-126.21 1386.09,-126.19 1339.6,-134.5 1324.12,-137.27 1307.97,-142.02 1292.91,-147.35"/>
<polygon fill="#8a7a74" stroke="#8a7a74" points="1291.75,-144.05 1283.58,-150.79 1294.17,-150.62 1291.75,-144.05"/>
<text xml:space="preserve" text-anchor="middle" x="1387.6" y="-136.45" font-family="Arial" font-size="9.00">structured verdict</text>
</g>
<!-- reviewer&#45;&gt;providers -->
<g id="edge20" class="edge">
<title>reviewer&#45;&gt;providers</title>
<path fill="none" stroke="#8a7a74" d="M1636.85,-160.66C1658.15,-167.75 1681.15,-175.4 1701.66,-182.23"/>
<polygon fill="#8a7a74" stroke="#8a7a74" points="1700.43,-185.5 1711.02,-185.34 1702.63,-178.86 1700.43,-185.5"/>
</g>
</g>
</svg>
